<svg xmlns="http://www.w3.org/2000/svg" height="511pt" version="1.1" viewBox="-5 0 511 511.99965" width="511pt">
<g id="surface1">
<path d="M 498.570312 291.324219 L 438.753906 221.085938 C 435.652344 217.445312 430.644531 216.332031 426.292969 218.316406 C 421.941406 220.300781 419.496094 224.808594 420.210938 229.539062 L 423.523438 251.441406 C 386.105469 233.382812 350.566406 213.476562 317.699219 192.164062 C 273.667969 163.609375 233.570312 132.125 198.523438 98.582031 C 155.054688 56.984375 130.34375 22.511719 121.738281 9.617188 C 118.515625 4.792969 113.605469 1.523438 107.90625 0.40625 C 102.21875 -0.703125 96.449219 0.472656 91.660156 3.71875 C 81.894531 10.339844 79.273438 23.710938 85.820312 33.523438 C 97.453125 50.964844 123.605469 86.59375 168.050781 129.222656 C 205.0625 164.722656 247.335938 197.988281 293.703125 228.097656 C 330.054688 251.703125 369.453125 273.617188 410.941406 293.320312 L 393.070312 310.882812 C 389.660156 314.234375 388.902344 319.308594 391.191406 323.507812 C 393.089844 326.988281 396.628906 329.039062 400.441406 329.039062 C 401.226562 329.039062 402.023438 328.953125 402.820312 328.773438 L 492.828125 308.527344 C 496.480469 307.707031 499.367188 305.097656 500.554688 301.546875 C 501.738281 297.992188 500.996094 294.171875 498.570312 291.324219 Z M 414.605469 310.75 L 429.148438 296.457031 C 430.902344 294.730469 431.699219 292.253906 431.28125 289.828125 C 430.859375 287.402344 429.273438 285.335938 427.039062 284.304688 C 382.59375 263.730469 340.480469 240.585938 301.871094 215.515625 C 256.296875 185.917969 214.765625 153.246094 178.433594 118.398438 C 135.015625 76.757812 109.589844 42.132812 98.300781 25.199219 C 96.308594 22.214844 97.109375 18.148438 100.078125 16.132812 C 101.175781 15.390625 102.445312 15.003906 103.746094 15.003906 C 104.171875 15.003906 104.601562 15.046875 105.027344 15.128906 C 106.773438 15.46875 108.277344 16.472656 109.261719 17.949219 C 118.144531 31.25 143.609375 66.792969 188.148438 109.421875 C 223.875 143.609375 264.714844 175.683594 309.539062 204.75 C 346.679688 228.835938 387.167969 251.144531 429.875 271.058594 C 432.378906 272.226562 435.324219 271.921875 437.535156 270.269531 C 439.75 268.613281 440.875 265.875 440.460938 263.140625 L 437.351562 242.578125 L 482.421875 295.496094 Z M 487.148438 301.050781 C 487.148438 301.046875 487.148438 301.046875 487.144531 301.046875 Z M 487.148438 301.050781 " style=" stroke:none;fill-rule:none;fill:#4fdb88;fill-opacity:1;" />
<path fill="#4fdb88" d="M 481.835938 459.828125 L 444.605469 459.828125 L 444.605469 447.167969 C 444.605469 443.023438 441.25 439.667969 437.105469 439.667969 C 432.960938 439.667969 429.605469 443.023438 429.605469 447.167969 L 429.605469 459.828125 L 387.8125 459.828125 L 387.8125 396.53125 L 429.605469 396.53125 L 429.605469 412.066406 C 429.605469 416.210938 432.960938 419.566406 437.105469 419.566406 C 441.25 419.566406 444.605469 416.210938 444.605469 412.066406 L 444.605469 394.726562 C 444.605469 387.449219 438.683594 381.53125 431.410156 381.53125 L 386.007812 381.53125 C 378.730469 381.53125 372.8125 387.449219 372.8125 394.726562 L 372.8125 459.828125 L 337.613281 459.828125 L 337.613281 310.894531 C 337.613281 303.617188 331.695312 297.699219 324.417969 297.699219 L 279.015625 297.699219 C 271.742188 297.699219 265.820312 303.617188 265.820312 310.894531 L 265.820312 459.828125 L 230.625 459.828125 L 230.625 226.84375 C 230.625 219.570312 224.703125 213.648438 217.425781 213.648438 L 172.027344 213.648438 C 164.75 213.648438 158.832031 219.570312 158.832031 226.84375 L 158.832031 459.828125 L 123.632812 459.828125 L 123.632812 223.277344 C 123.632812 219.132812 120.277344 215.777344 116.132812 215.777344 C 111.988281 215.777344 108.632812 219.132812 108.632812 223.277344 L 108.632812 459.828125 L 66.835938 459.828125 L 66.835938 145.035156 L 108.628906 145.035156 L 108.628906 188.378906 C 108.628906 192.519531 111.988281 195.878906 116.128906 195.878906 C 120.273438 195.878906 123.628906 192.519531 123.628906 188.378906 L 123.628906 143.230469 C 123.628906 135.953125 117.710938 130.035156 110.433594 130.035156 L 65.03125 130.035156 C 57.753906 130.035156 51.835938 135.953125 51.835938 143.230469 L 51.835938 459.828125 L 14.609375 459.828125 C 6.828125 459.828125 0.5 466.15625 0.5 473.933594 L 0.5 497.890625 C 0.5 505.671875 6.828125 512 14.609375 512 L 481.832031 512 C 489.613281 512 495.941406 505.671875 495.941406 497.890625 L 495.941406 473.933594 C 495.941406 466.15625 489.613281 459.828125 481.835938 459.828125 Z M 280.820312 312.699219 L 322.613281 312.699219 L 322.613281 459.824219 L 280.820312 459.824219 Z M 173.828125 228.648438 L 215.621094 228.648438 L 215.621094 459.828125 L 173.828125 459.828125 Z M 480.941406 497 L 15.5 497 L 15.5 474.828125 L 480.941406 474.828125 Z M 480.941406 497 " style=" stroke:;fill-rule:none;fill:#4fdb88;fill-opacity:1;" />
</g>
</svg>
